<svg xmlns="http://www.w3.org/2000/svg" viewBox="0 0 512 512" width="512" height="512">
  <!-- User icon -->
  <circle cx="256" cy="120" r="70" fill="#805AD5" />
  <path d="M256 190 L256 190 Q346 190 376 260 Q406 330 406 380 L106 380 Q106 330 136 260 Q166 190 256 190 Z" fill="#805AD5" opacity="0.7" />
  
  <!-- Lock icon -->
  <rect x="206" y="280" width="100" height="80" rx="10" fill="#4A5568" />
  <rect x="226" y="240" width="60" height="40" rx="10" fill="#4A5568" />
  
  <!-- Fitness elements -->
  <circle cx="176" cy="120" r="15" fill="#4A5568" />
  <circle cx="336" cy="120" r="15" fill="#4A5568" />
  <rect x="161" y="120" width="30" height="5" rx="2" fill="#4A5568" />
  <rect x="321" y="120" width="30" height="5" rx="2" fill="#4A5568" />
  
  <!-- Decorative elements -->
  <circle cx="256" cy="430" r="20" fill="#805AD5" opacity="0.5" />
  <circle cx="206" cy="430" r="15" fill="#805AD5" opacity="0.4" />
  <circle cx="306" cy="430" r="15" fill="#805AD5" opacity="0.4" />
</svg>